HIERARCHY
ROOT Hips
{
	OFFSET 0.00000 0.00000 0.00000
	CHANNELS 6 Xposition Yposition Zposition Yrotation Zrotation Xrotation 
	JOINT Lumbar
	{
		OFFSET 0 0 0
		CHANNELS 3 Zrotation Xrotation Yrotation
		JOINT Neck
		{
			OFFSET 0.00 0.2701 0.00
			CHANNELS 3 Zrotation Xrotation Yrotation
			End Site
			{
				OFFSET 0.00 0.1379 0.00
			}
		}
		JOINT RightShoulder
		{
			OFFSET 0.0119 0.2289 0.1181
			CHANNELS 3 Zrotation Xrotation Yrotation
			JOINT RightElbow
			{
				OFFSET 0.00 -0.1475 0.00
				CHANNELS 2 Zrotation Yrotation
				JOINT RightWrist
				{
					OFFSET 0.00 -0.1605 0.00
					CHANNELS 2 Zrotation Xrotation
					End Site
					{
						OFFSET 0.0040 -0.1068 0.0006
					}
				}
			}
		}
		JOINT LeftShoulder
		{
			OFFSET 0.0119 0.2289 -0.1181
			CHANNELS 3 Zrotation Xrotation Yrotation
			JOINT LeftElbow
			{
				OFFSET 0.00 -0.1475 0.00
				CHANNELS 2 Zrotation Yrotation
				JOINT LeftWrist
				{
					OFFSET 0.00 -0.1605 0.00
					CHANNELS 2 Zrotation Xrotation
					End Site
					{
						OFFSET 0.0040 -0.1068 -0.0006
					}
				}
			}
		}
	}
	JOINT RightHip
	{
		OFFSET 0.0316 -0.0424 0.0458
		CHANNELS 3 Zrotation Xrotation Yrotation
		JOINT RightKnee
		{
			OFFSET 0.00 -0.2438 0.00
			CHANNELS 1 Zrotation
			JOINT RightAnkle
			{
				OFFSET 0.00 -0.2449 0.00
				CHANNELS 3 Zrotation Xrotation Yrotation
				End Site
				{
					OFFSET 0.1237 -0.0542 0.0051
				}
			}
		}
	}
	JOINT LeftHip
	{
		OFFSET 0.0316 -0.0424 -0.0458
		CHANNELS 3 Zrotation Xrotation Yrotation
		JOINT LeftKnee
		{
			OFFSET 0.00 -0.2438 0.00
			CHANNELS 1 Zrotation
			JOINT LeftAnkle
			{
				OFFSET 0.00 -0.2449 0.00
				CHANNELS 3 Zrotation Xrotation Yrotation
				End Site
				{
					OFFSET 0.1237 -0.0542 -0.0051
				}
			}
		}
	}
}
MOTION
Frames: 19
Frame Time: 0.02
0.77334 0.56713 0.59596 -149.92673 0 -3.69024 -56.06391 1.85724 -36.85354 -73.79673 -43.31476 36.69028 149.43433 -38.37105 23.66671 5.32866 80.01012 -3.09259 -2.42324 140.88965 -0.40213 44.79649 5.32862 -83.55301 -1.24593 6.78607 23.19807 1.3881 -10.78414 -38.03525 8.9289 -2.70902 -0.70963 26.9763 7.01221 -2.66702 -37.36107 9.01641 6.08194 6.23122
0.77356 0.56623 0.59627 -150.00941 0 -3.83134 -56.06392 1.90537 -36.61044 -73.79679 -43.31497 37.89337 150.45909 -38.87151 26.03026 5.32864 80.06444 -3.02466 -2.24532 141.07763 -0.97636 49.17011 5.32857 -83.74763 -0.95569 6.61849 23.38436 1.36762 -11.06887 -38.40046 9.13844 -2.53713 -0.44802 27.29702 7.06207 -2.86305 -37.9818 9.30251 6.25542 6.41078
0.77385 0.56519 0.59649 -150.06874 0 -3.99291 -56.06392 1.99727 -36.36961 -73.79681 -43.31505 39.1373 151.54264 -39.34154 28.79779 5.32861 80.14593 -2.95001 -2.04481 141.26296 -1.61189 53.36225 5.32864 -83.98911 -0.71238 6.41928 23.59866 1.3311 -11.43903 -38.81447 9.37476 -2.3167 -0.1227 27.66883 7.10603 -3.13567 -38.66603 9.60861 6.45403 6.62945
0.7741 0.56421 0.59675 -150.13835 0 -4.14702 -56.06392 2.06884 -36.12769 -73.79685 -43.3152 40.35917 152.59458 -39.81905 31.3826 5.32859 80.2077 -2.88087 -1.85872 141.4498 -2.23039 57.58511 5.32849 -84.17542 -0.44901 6.23616 23.79923 1.30438 -11.7705 -39.20538 9.59803 -2.11756 0.17271 28.01701 7.15278 -3.37916 -39.32142 9.90304 6.64651 6.83507
0.77439 0.56322 0.59703 -150.21061 0 -4.29578 -56.06392 2.14224 -35.88553 -73.79689 -43.31534 41.60139 153.67412 -40.32295 33.96832 5.32856 80.30111 -2.8016 -1.65504 141.63398 -2.80346 62.12793 5.3285 -84.49817 -0.17397 6.04895 24.0051 1.2687 -12.10455 -39.60101 9.82462 -1.91978 0.47497 28.36931 7.20062 -3.60311 -39.98066 10.20962 6.81928 7.02405
0.77462 0.56222 0.59724 -150.2716 0 -4.45811 -56.06392 2.22128 -35.64584 -73.79692 -43.31545 42.80609 154.70446 -40.76287 36.64332 5.32854 80.33409 -2.74155 -1.48283 141.82327 -3.4836 65.85336 5.3289 -84.5567 0.05879 5.85821 24.2061 1.24671 -12.45041 -39.99778 10.05063 -1.70924 0.77584 28.72299 7.24381 -3.88199 -40.64328 10.49433 7.03666 7.25443
0.77467 0.56116 0.59732 -150.30346 0 -4.67125 -56.06392 2.31763 -35.39701 -73.79693 -43.31547 43.92889 155.62021 -41.05679 39.50041 5.32855 80.20421 -2.73873 -1.40097 142.03085 -4.46876 68.23352 5.32769 -83.79367 0.24257 5.70863 24.38693 1.27304 -12.83152 -40.3889 10.27045 -1.46475 1.07167 29.0831 7.28027 -4.32181 -41.32578 10.72355 7.38789 7.60509
0.77465 0.56008 0.59733 -150.32496 0 -4.89368 -56.06392 2.41648 -35.15323 -73.79692 -43.31546 45.00523 156.47631 -41.28304 42.4249 5.32857 80.01139 -2.75513 -1.35193 142.24294 -5.5549 69.64546 5.32955 -82.77631 0.37625 5.55013 24.56136 1.31228 -13.21704 -40.77835 10.4883 -1.21135 1.36089 29.43956 7.31114 -4.80877 -42.00381 10.92787 7.77951 7.99262
0.77466 0.55904 0.59737 -150.35381 0 -5.09988 -56.06392 2.50549 -34.91723 -73.79692 -43.31546 46.08302 157.33703 -41.52589 45.29825 5.32858 79.83946 -2.76093 -1.28922 142.45132 -6.57967 70.91177 5.32895 -81.93025 0.49386 5.36562 24.73893 1.34121 -13.585 -41.16707 10.70606 -0.96893 1.64366 29.78806 7.34146 -5.25558 -42.66737 11.13754 8.14191 8.35321
0.77471 0.55789 0.59744 -150.37195 0 -5.35802 -56.06392 2.63061 -34.63918 -73.79693 -43.31548 47.24951 158.29872 -41.82893 48.28019 5.3286 79.69789 -2.77386 -1.22052 142.66792 -7.67359 74.59008 5.32385 -80.85771 0.7676 5.3008 24.91798 1.38854 -14.02167 -41.56579 10.9296 -0.69498 1.96913 30.18033 7.38499 -5.78426 -43.40535 11.37443 8.5525 8.7594
0.77464 0.55695 0.59741 -150.4087 0 -5.50927 -56.06392 2.68326 -34.4494 -73.79692 -43.31546 48.21436 159.03025 -41.98899 51.03681 5.32861 79.48174 -2.77721 -1.17231 142.86685 -8.64452 73.08539 5.34015 -80.18699 0.71265 4.99264 25.09023 1.40058 -14.31513 -41.94013 11.1394 -0.48595 2.20259 30.47822 7.3993 -6.15251 -43.9833 11.54679 8.87016 9.07734
0.77431 0.5565 0.59715 -150.51252 0 -5.36863 -56.06392 2.51177 -34.50647 -73.7969 -43.31537 48.67745 159.18126 -41.78617 53.23489 5.32861 79.04041 -2.74407 -1.17366 143.02954 -9.26913 56.92072 5.31419 -80.76564 -0.30611 3.94914 25.26046 1.31427 -14.21147 -42.2687 11.31907 -0.45233 2.18896 30.53053 7.33859 -6.06625 -44.14715 11.56111 8.93656 9.15445
0.77385 0.55626 0.59678 -150.63313 0 -5.11912 -56.06392 2.27137 -34.65161 -73.79686 -43.31525 48.92995 159.09434 -41.43817 55.18543 5.32861 78.53202 -2.70159 -1.1945 143.17128 -9.7628 35.6887 5.32572 -81.74367 -1.64193 2.67338 25.42103 1.19183 -13.96319 -42.56844 11.48336 -0.48574 2.08166 30.48528 7.24816 -5.81641 -44.14511 11.50863 8.90497 9.1385
0.77343 0.55596 0.59645 -150.73751 0 -4.91555 -56.06392 2.07774 -34.75322 -73.79684 -43.31514 49.25113 159.09015 -41.1479 57.19656 5.32862 78.07753 -2.66698 -1.20583 143.31429 -10.3043 17.15431 5.3895 -82.48655 -2.78619 1.54725 25.57599 1.08432 -13.78112 -42.86747 11.64991 -0.49262 2.01341 30.47492 7.16819 -5.6412 -44.20083 11.47746 8.90825 9.15783
0.7731 0.55552 0.59615 -150.87763 0 -4.72663 -56.06392 1.81921 -34.86873 -73.7968 -43.31502 49.68846 159.19318 -40.89384 59.43544 5.32862 77.52402 -2.61796 -1.22082 143.49427 -10.89867 -3.10215 5.17202 -83.44325 -4.1285 0.23509 25.77321 0.98286 -13.59733 -43.22548 11.83688 -0.48245 1.95976 30.50358 7.09973 -5.46695 -44.32965 11.48369 8.95415 9.2103
0.77256 0.55542 0.59576 -150.94766 0 -4.48197 -56.06391 1.6792 -34.97748 -73.79678 -43.31492 49.8299 159.0146 -40.52605 61.13273 5.32862 77.15908 -2.59619 -1.23268 143.58973 -11.35047 -20.93537 5.53523 -84.05757 -5.13813 -0.74512 25.87989 0.86091 -13.38257 -43.45295 11.97706 -0.52398 1.85364 30.42878 7.00178 -5.25063 -44.26837 11.39637 8.88695 9.16837
0.77146 0.55621 0.59514 -150.81857 0 -4.10399 -56.06391 1.88513 -35.03462 -73.79677 -43.3149 49.24538 158.13917 -39.92027 61.45971 5.32862 77.35373 -2.65459 -1.22834 143.47897 -11.43907 -31.05639 7.61145 -83.58764 -5.10517 -0.7463 25.74161 0.6842 -13.1189 -43.33464 11.99709 -0.69031 1.625 30.0852 6.81724 -4.96421 -43.71171 11.06866 8.53569 8.91213
0.77016 0.55734 0.59442 -150.619 0 -3.67504 -56.06391 2.21204 -35.08408 -73.79677 -43.3149 48.36375 156.98534 -39.19783 61.23932 5.32862 77.73666 -2.74019 -1.22045 143.28044 -11.38781 -38.51276 10.24739 -82.76782 -4.7339 -0.40571 25.51232 0.48954 -12.82904 -43.08486 11.96961 -0.9064 1.34723 29.64311 6.60653 -4.64073 -42.97301 10.64936 8.07306 8.55962
0.76895 0.55832 0.59374 -150.45226 0 -3.27295 -56.06391 2.48279 -35.14441 -73.79677 -43.31489 47.59172 155.94355 -38.50252 61.22473 5.32862 78.01887 -2.81149 -1.21593 143.10675 -11.40196 -47.04718 12.55074 -82.13706 -4.54891 -0.22602 25.32266 0.30745 -12.55005 -42.8899 11.96043 -1.10113 1.09196 29.24954 6.41583 -4.32868 -42.32307 10.27054 7.65834 8.23534
